<?xml version="1.0" encoding="UTF-8"?>
<svg version="1.1" xmlns="http://www.w3.org/2000/svg" width="374" height="116">
<path d="M0 0 C0.66 0.33 1.32 0.66 2 1 C2 1.66 2 2.32 2 3 C2.66 3 3.32 3 4 3 C4 23.46 4 43.92 4 65 C4.66 65 5.32 65 6 65 C6 65.66 6 66.32 6 67 C7.65 67 9.3 67 11 67 C11.66 68.32 12.32 69.64 13 71 C14.32 70.01 15.64 69.02 17 68 C16.505 67.29875 16.01 66.5975 15.5 65.875 C13.76792141 62.55518269 13.60687002 60.69542183 14 57 C15.22771183 53.09364418 17.45706334 51.86470351 21 50 C20.57847656 49.5153125 20.15695313 49.030625 19.72265625 48.53125 C15.9160275 43.87372777 13.47002172 40.15235654 14 34 C15.03543511 29.52283693 16.44774296 25.82838557 19 22 C19.66 22 20.32 22 21 22 C21 21.34 21 20.68 21 20 C26.89157737 16.11406599 32.24037336 14.13461334 39.36328125 15.4296875 C40.89403794 15.80530175 42.42278494 16.18921841 43.94921875 16.58203125 C46.84794697 17.17281967 49.13389207 16.6568164 52 16 C53.45640744 15.81726723 54.9150623 15.65197304 56.375 15.5 C60.59040452 15.04911633 64.79449224 14.53524644 69 14 C68.01 12.515 68.01 12.515 67 11 C66.43953048 7.4503597 66.82075952 6.26288604 68.875 3.25 C71.36564558 0.61284586 72.24169416 0.10110745 75.8125 -0.375 C79 0 79 0 81.875 2.0625 C84.503012 5.69534012 84.48820347 7.60616873 84 12 C83.67 12.99 83.34 13.98 83 15 C83.495 15.495 83.495 15.495 84 16 C84.12272849 17.59513893 84.17781043 19.19554932 84.20532227 20.79516602 C84.2352401 22.32664024 84.2352401 22.32664024 84.26576233 23.88905334 C84.28247482 24.9994548 84.29918732 26.10985626 84.31640625 27.25390625 C84.33718735 28.38448959 84.35796844 29.51507294 84.37937927 30.67991638 C84.44499797 34.30737985 84.50381677 37.93491833 84.5625 41.5625 C84.60567351 44.01498186 84.6492874 46.467456 84.69335938 48.91992188 C84.80069184 54.94653427 84.9024349 60.97322201 85 67 C87.31 67 89.62 67 92 67 C92.09890033 61.09184657 92.17148371 55.18417528 92.21972656 49.27539062 C92.23983805 47.26553962 92.26713115 45.25574709 92.30175781 43.24609375 C92.35029634 40.35662404 92.37297322 37.46792809 92.390625 34.578125 C92.41127014 33.68007141 92.43191528 32.78201782 92.45318604 31.85675049 C92.50321331 26.79546734 92.50321331 26.79546734 90.10058594 22.46386719 C88.07591729 20.97775973 88.07591729 20.97775973 86 20 C86.33 18.35 86.66 16.7 87 15 C93.93 15 100.86 15 108 15 C108 16.65 108 18.3 108 20 C109.5159375 19.01 109.5159375 19.01 111.0625 18 C117.84551087 14.61454003 126.38916472 14.70730705 133.60546875 16.73046875 C137.77149488 18.64543385 140.49957703 21.09934016 143 25 C144.2628777 28.7886331 144.17432911 32.36757289 144.2109375 36.31640625 C144.2389897 37.98373405 144.26765403 39.65105165 144.296875 41.31835938 C144.33825178 43.94750865 144.37513929 46.57646388 144.40136719 49.20581055 C144.42887141 51.74307496 144.47472087 54.27947263 144.5234375 56.81640625 C144.5283168 58.0008004 144.5283168 58.0008004 144.53329468 59.2091217 C144.55437213 61.65716148 144.55437213 61.65716148 145 65 C145.99 65.66 146.98 66.32 148 67 C147.67515625 66.43152344 147.3503125 65.86304687 147.015625 65.27734375 C144.97151003 60.69380903 145.47109978 55.61975693 147 50.9375 C147.33 50.298125 147.66 49.65875 148 49 C148.66 49 149.32 49 150 49 C150.25007812 48.3709375 150.50015625 47.741875 150.7578125 47.09375 C152.27208251 44.54139552 153.06581525 44.28204411 155.875 43.5 C156.6690625 43.26539063 157.463125 43.03078125 158.28125 42.7890625 C159.62703125 42.39847656 159.62703125 42.39847656 161 42 C163.12761851 41.29957113 165.25258979 40.59105587 167.375 39.875 C170.25 38.91666667 173.125 37.95833333 176 37 C175.85866501 35.22880197 175.71176792 33.45804713 175.5625 31.6875 C175.48128906 30.70136719 175.40007812 29.71523438 175.31640625 28.69921875 C175.08187441 25.90624401 175.08187441 25.90624401 174 23 C171.36 23 168.72 23 166 23 C165.66226563 23.63808594 165.32453125 24.27617188 164.9765625 24.93359375 C164.53054688 25.75988281 164.08453125 26.58617188 163.625 27.4375 C162.96371094 28.67306641 162.96371094 28.67306641 162.2890625 29.93359375 C161 32 161 32 159 33 C155.12575435 33.35872645 152.85066094 33.56710729 149.5625 31.375 C147.50208229 28.24316508 147.3232455 26.68455227 148 23 C151.61825296 17.98113299 156.10689383 16.14835453 162 15 C170.91825596 14.12259746 179.36690884 15.00779529 187 19.9375 C191.27784094 24.34902347 191.32689868 28.5330692 191.4140625 34.484375 C191.44311172 35.70776581 191.44311172 35.70776581 191.4727478 36.95587158 C191.53239575 39.55380892 191.57886942 42.15179093 191.625 44.75 C191.66319342 46.51434194 191.70224595 48.27866551 191.7421875 50.04296875 C191.83808505 54.36182946 191.92217047 58.68077744 192 63 C192.99 63.33 193.98 63.66 195 64 C195.99 63.01 195.99 63.01 197 62 C198.32 62 199.64 62 201 62 C201.375 64.6875 201.375 64.6875 201 68 C198.27668333 71.38574505 196.66208047 72.69054358 192.3984375 73.484375 C185.60696353 73.8211423 182.04922294 72.48819817 177 68 C176.401875 68.639375 175.80375 69.27875 175.1875 69.9375 C171.45206335 73.45948313 167.99956084 73.16159727 163.0625 73.1875 C161.83660156 73.20167969 160.61070312 73.21585937 159.34765625 73.23046875 C156.24356188 73.01676797 154.58637449 72.63998182 152 71 C151.67 71.66 151.34 72.32 151 73 C147.06782815 73.19255579 143.13529426 73.37122901 139.2019043 73.53710938 C137.20653467 73.6241695 135.21165305 73.72218873 133.21679688 73.8203125 C131.96318359 73.871875 130.70957031 73.9234375 129.41796875 73.9765625 C128.26063232 74.02893066 127.1032959 74.08129883 125.91088867 74.13525391 C123 74 123 74 120 72 C120.875 68.125 120.875 68.125 122 67 C123.99958364 66.95919217 126.00045254 66.95745644 128 67 C128.02491426 62.73161194 128.04296047 58.46326361 128.05493164 54.19482422 C128.05992785 52.74592348 128.06672709 51.29702769 128.07543945 49.84814453 C128.39543352 37.25851559 128.39543352 37.25851559 126 25 C124.2507786 24.91857073 122.50045458 24.86061459 120.75 24.8125 C119.77546875 24.77769531 118.8009375 24.74289063 117.796875 24.70703125 C114.58224385 25.04375937 113.45568858 26.00081763 111 28 C110.01 28 109.02 28 108 28 C108.11840796 32.91145542 108.24266723 37.8227151 108.37231445 42.73388672 C108.41558489 44.40409334 108.45726549 46.07434194 108.49731445 47.74462891 C108.55520851 50.14758955 108.6188474 52.55034041 108.68359375 54.953125 C108.70030624 55.69806213 108.71701874 56.44299927 108.73423767 57.21051025 C108.83061695 60.59509934 108.96070174 63.7600524 110 67 C111.65 67 113.3 67 115 67 C116 70 116 70 115 73 C98.5 73.33 82 73.66 65 74 C65 75.98 65 77.96 65 80 C64.125 82.5546875 64.125 82.5546875 63 84.875 C62.443125 86.04675781 62.443125 86.04675781 61.875 87.2421875 C61.58625 87.82226562 61.2975 88.40234375 61 89 C60.34 89 59.68 89 59 89 C59 89.66 59 90.32 59 91 C51.86477454 96.86170111 45.28066083 97.60223998 36.3125 97.625 C34.83414673 97.64046875 34.83414673 97.64046875 33.32592773 97.65625 C25.4530279 97.50779225 20.12574501 95.65008816 14.125 90.5625 C11.91862145 87.90186704 10.7641205 86.36213018 10 83 C10.33 80.03 10.66 77.06 11 74 C1.43 73.67 -8.14 73.34 -18 73 C-18 68 -18 68 -17 67 C-15.35 67 -13.7 67 -12 67 C-11.67 52.15 -11.34 37.3 -11 22 C-12.98 21.34 -14.96 20.68 -17 20 C-17 18.35 -17 16.7 -17 15 C-13.535 14.505 -13.535 14.505 -10 14 C-10.33 13.67 -10.66 13.34 -11 13 C-11.52829961 8.7302999 -11.70979336 5.16406111 -9.4375 1.4375 C-6.14128053 -0.50642431 -3.7621596 -0.34834811 0 0 Z M31.8125 23.8125 C28.68633005 29.31024715 28.20727078 35.85523107 29.75 42 C31.14250476 45.64801923 31.14250476 45.64801923 34 48 C37.06496649 48.32294477 37.06496649 48.32294477 40 47 C43.40374625 41.6674642 43.77858935 36.21847019 43 30 C41.66362375 26.598315 40.56521154 24.56521154 38 22 C34.03987612 21.57465476 34.03987612 21.57465476 31.8125 23.8125 Z M54 24 C54.33 24.86625 54.66 25.7325 55 26.625 C56.74573789 32.5629676 56.1528417 38.87784069 56 45 C55.34 45 54.68 45 54 45 C53.4225 45.763125 52.845 46.52625 52.25 47.3125 C47.91383265 52.491811 42.88325907 53.39080593 36.375 54.0625 C30.4073283 54.63373655 30.4073283 54.63373655 25 57 C28.54176464 59.36117642 29.8341147 59.16022636 34 59 C43.27484381 58.87605999 51.24288434 59.66698298 59 65 C59.804375 65.8971875 59.804375 65.8971875 60.625 66.8125 C62.02061177 68.28661636 62.02061177 68.28661636 64.5625 67.9375 C67.03313994 67.23432614 67.03313994 67.23432614 68.14013672 65.48535156 C69.41673096 61.7954795 69.24442209 58.15310399 69.1953125 54.296875 C69.19106766 53.04019012 69.19106766 53.04019012 69.18673706 51.75811768 C69.17556349 49.08859837 69.15046421 46.4194175 69.125 43.75 C69.11496654 41.93750485 69.10584133 40.12500444 69.09765625 38.3125 C69.0756334 33.87487007 69.04112304 29.43749237 69 25 C68.34 25.33 67.68 25.66 67 26 C67 26.66 67 27.32 67 28 C66.34 28 65.68 28 65 28 C65 28.66 65 29.32 65 30 C62.36 29.34 59.72 28.68 57 28 C56.67 26.68 56.34 25.36 56 24 C55.34 24 54.68 24 54 24 Z M172.75 45.8125 C170 48 170 48 167.375 49.4375 C164.49118339 51.33474777 163.39217342 52.84929173 162 56 C161.58708943 60.12910567 161.66090693 61.4913604 164 65 C165.97747122 65.36297936 165.97747122 65.36297936 168.125 65.1875 C169.40375 65.125625 170.6825 65.06375 172 65 C172 64.34 172 63.68 172 63 C173.32 62.67 174.64 62.34 176 62 C176 56.06 176 50.12 176 44 C174.6482538 43.89544508 174.6482538 43.89544508 172.75 45.8125 Z M30 73 C30 74.98 30 76.96 30 79 C29.04287109 78.76603516 29.04287109 78.76603516 28.06640625 78.52734375 C27.24011719 78.33269531 26.41382813 78.13804688 25.5625 77.9375 C24.73878906 77.74027344 23.91507813 77.54304688 23.06640625 77.33984375 C22.38449219 77.22769531 21.70257813 77.11554688 21 77 C19.69253291 78.09923541 19.69253291 78.09923541 19.6875 80.8125 C19.74941682 83.98807949 19.74941682 83.98807949 21.4375 86.1875 C26.14539108 89.51747174 31.30812058 91.42952742 37.125 90.875 C44.31262379 89.26106575 44.31262379 89.26106575 50 84.75 C51.29934425 81.17680332 50.7914936 78.66965214 50 75 C45.72115394 72.8896565 41.86135858 72.75871261 37.1875 72.875 C36.49462891 72.88402344 35.80175781 72.89304687 35.08789062 72.90234375 C33.39177605 72.92573843 31.69584129 72.96160359 30 73 Z " fill="#CE5D3E" transform="translate(167,9)"/>
<path d="M0 0 C0 0.66 0 1.32 0 2 C0.66 2 1.32 2 2 2 C2 2.66 2 3.32 2 4 C3.32 4.66 4.64 5.32 6 6 C6 6.66 6 7.32 6 8 C6.66 8 7.32 8 8 8 C8 8.99 8 9.98 8 11 C8.66 11 9.32 11 10 11 C13.24248237 17.70113023 13.88807268 25.79996164 12 33 C10.83193289 35.76822409 9.49084027 38.39276307 8 41 C7.34 41 6.68 41 6 41 C6 41.66 6 42.32 6 43 C5.34 43 4.68 43 4 43 C4 43.66 4 44.32 4 45 C3.34 45 2.68 45 2 45 C1.67 45.99 1.34 46.98 1 48 C-7.02953055 53.8243555 -16.44592859 54.85637853 -26.0625 53.5 C-33.91784815 51.61218246 -41.79160594 46.8517656 -46.07421875 39.875 C-49.68193939 32.56822401 -51.44401341 25.5181941 -49.34375 17.4921875 C-47.16916191 11.36209867 -43.90234571 6.32275804 -39 2 C-38.34 2 -37.68 2 -37 2 C-37 1.34 -37 0.68 -37 0 C-35.41800369 -0.64910154 -33.83434276 -1.29414694 -32.25 -1.9375 C-31.36828125 -2.29714844 -30.4865625 -2.65679688 -29.578125 -3.02734375 C-18.79950621 -7.09382266 -10.29057926 -4.51624168 0 0 Z M-30.25 10.125 C-34.15510989 16.54053767 -33.55704562 23.73612512 -33 31 C-31.7027457 35.53731599 -29.6020087 39.09698694 -27 43 C-26.34 43 -25.68 43 -25 43 C-25 43.66 -25 44.32 -25 45 C-23.68 45 -22.36 45 -21 45 C-21 45.66 -21 46.32 -21 47 C-19.02 47 -17.04 47 -15 47 C-15 46.34 -15 45.68 -15 45 C-14.4225 44.9175 -13.845 44.835 -13.25 44.75 C-10.11037108 43.70345703 -9.01745631 42.66824867 -7 40 C-3.08951225 31.0474791 -2.488542 21.26373517 -5.94140625 12.078125 C-7.9989126 8.03903504 -10.88737941 4.0563103 -15 2 C-23.2106841 1.19239173 -25.43673053 3.43990352 -30.25 10.125 Z " fill="#CE5D3E" transform="translate(92,29)"/>
<path d="M0 0 C1.65 0 3.3 0 5 0 C6.38529821 5.45461169 7.2396943 10.36718401 7 16 C8.17369141 16.09087891 8.17369141 16.09087891 9.37109375 16.18359375 C10.38300781 16.26738281 11.39492188 16.35117187 12.4375 16.4375 C13.95150391 16.55931641 13.95150391 16.55931641 15.49609375 16.68359375 C18 17 18 17 19 18 C19.04080783 19.99958364 19.04254356 22.00045254 19 24 C16.35541621 25.32229189 14.32238699 25.09677194 11.375 25.0625 C10.37210938 25.05347656 9.36921875 25.04445313 8.3359375 25.03515625 C7.56507812 25.02355469 6.79421875 25.01195313 6 25 C6.09389034 30.01740834 6.20006181 35.03435427 6.31738281 40.05126953 C6.35555219 41.75627619 6.39042566 43.46136006 6.421875 45.16650391 C6.46778836 47.62430326 6.52573769 50.08157652 6.5859375 52.5390625 C6.59748871 53.29555084 6.60903992 54.05203918 6.62094116 54.83145142 C6.74251699 59.2386831 7.38256414 62.8968206 9 67 C12.3324787 67.33417929 12.3324787 67.33417929 16 67 C17.35308313 65.68671343 18.68870078 64.35500919 20 63 C22.75 63.25 22.75 63.25 25 64 C24.58443583 68.84824868 22.62551755 70.88036862 19 74 C15.34027391 76.4035272 11.9337112 76.33199889 7.625 76.375 C6.33851562 76.40335937 5.05203125 76.43171875 3.7265625 76.4609375 C-0.60156752 75.92559228 -2.68209673 74.7893877 -6 72 C-7.78280317 69.11354777 -8.2468718 66.96820518 -8.22705078 63.59863281 C-8.22682419 62.3077475 -8.22682419 62.3077475 -8.22659302 60.99078369 C-8.21627045 60.07085632 -8.20594788 59.15092896 -8.1953125 58.203125 C-8.19106766 56.77996979 -8.19106766 56.77996979 -8.18673706 55.32806396 C-8.17555448 52.30191361 -8.1504533 49.2760607 -8.125 46.25 C-8.11496772 44.19661886 -8.1058423 42.14323308 -8.09765625 40.08984375 C-8.07562141 35.05978146 -8.04110462 30.02994114 -8 25 C-9.98 25 -11.96 25 -14 25 C-14 23.02 -14 21.04 -14 19 C-12.68 18.67 -11.36 18.34 -10 18 C-10 17.01 -10 16.02 -10 15 C-9.34 15 -8.68 15 -8 15 C-8 14.34 -8 13.68 -8 13 C-7.34 13 -6.68 13 -6 13 C-5.7525 12.34 -5.505 11.68 -5.25 11 C-3.68182955 7.23639093 -1.85494954 3.6288576 0 0 Z " fill="#CE5D3E" transform="translate(22,6)"/>
<path d="M0 0 C3.3125 2.0625 3.3125 2.0625 5 5 C5.3125 8.8125 5.3125 8.8125 5 12 C4.34 12 3.68 12 3 12 C3 12.66 3 13.32 3 14 C1.02 14.66 -0.96 15.32 -3 16 C-3 15.34 -3 14.68 -3 14 C-4.32 14 -5.64 14 -7 14 C-9.75 11.5 -9.75 11.5 -12 9 C-14.63619459 9.96660468 -15.77793849 10.57865126 -17.10693359 13.1003418 C-18.20133512 16.65370617 -18.35291706 20.02265893 -18.4140625 23.70703125 C-18.43342865 24.43242599 -18.4527948 25.15782074 -18.4727478 25.90519714 C-18.53222108 28.20751422 -18.57879845 30.50988219 -18.625 32.8125 C-18.66320958 34.37957832 -18.70226303 35.94663631 -18.7421875 37.51367188 C-18.83789563 41.34228152 -18.92204448 45.17098942 -19 49 C-18.34 49 -17.68 49 -17 49 C-17 49.66 -17 50.32 -17 51 C-15.35 51 -13.7 51 -12 51 C-11.61781233 52.65614657 -11.28604898 54.32457024 -11 56 C-12 57 -12 57 -14.77563477 57.11352539 C-15.98533936 57.10828857 -17.19504395 57.10305176 -18.44140625 57.09765625 C-19.74658203 57.09443359 -21.05175781 57.09121094 -22.39648438 57.08789062 C-23.7851569 57.07953401 -25.17382877 57.07106905 -26.5625 57.0625 C-27.95507656 57.05748666 -29.34765481 57.05292347 -30.74023438 57.04882812 C-34.1601987 57.03699434 -37.58007844 57.0205088 -41 57 C-41 55.02 -41 53.04 -41 51 C-39.02 51 -37.04 51 -35 51 C-34.97526018 45.80387722 -34.95712108 40.60778882 -34.94506836 35.41162109 C-34.94004313 33.64436241 -34.93322191 31.87710788 -34.92456055 30.10986328 C-34.91241572 27.56802343 -34.90675355 25.0262386 -34.90234375 22.484375 C-34.89718246 21.69569031 -34.89202118 20.90700562 -34.88670349 20.09442139 C-34.85273122 14.95594891 -34.85273122 14.95594891 -36 10 C-38.49034386 8.70339566 -38.49034386 8.70339566 -41 8 C-41 6.35 -41 4.7 -41 3 C-33.33333333 3 -25.66666667 3 -18 3 C-16.87078125 2.27296875 -16.87078125 2.27296875 -15.71875 1.53125 C-10.82332164 -1.22594528 -5.44997139 -0.73271062 0 0 Z " fill="#CE5D3E" transform="translate(145,25)"/>
<path d="M0 0 C1.14947585 0.00092179 2.2989517 0.00184359 3.48326015 0.00279331 C4.79724285 0.00141865 6.11122555 0.00004398 7.4650259 -0.00137234 C8.93484424 0.00216728 10.40466235 0.0058021 11.87448025 0.00952244 C13.411554 0.0098043 14.94862789 0.0096466 16.48570156 0.00907993 C20.67147095 0.00879192 24.85721194 0.01468931 29.04297471 0.02165389 C33.41254392 0.02788674 37.7821137 0.02849117 42.15168667 0.0296793 C50.43191283 0.03279282 58.71212586 0.04100648 66.99234623 0.05102879 C76.41661395 0.06218929 85.84088228 0.06770021 95.26515496 0.07272422 C114.65699155 0.08318908 134.0488159 0.10078892 153.44064236 0.12304783 C153.48318592 2.12259529 153.48145019 4.12346419 153.44064236 6.12304783 C151.63489742 7.92879277 148.87484328 7.24922767 146.44271755 7.25003147 C145.13859417 7.2528513 143.83447079 7.25567112 142.49082851 7.25857639 C141.03204237 7.25663179 139.57325635 7.2545836 138.11447048 7.25244236 C136.58887089 7.25379634 135.06327163 7.25557625 133.537673 7.25775242 C129.3828308 7.26232717 125.22801332 7.26053702 121.07317066 7.25737333 C116.73476372 7.25484995 112.39635895 7.25718721 108.05795193 7.2587595 C100.77096074 7.26058126 93.48397967 7.25817472 86.19699001 7.25341892 C77.75992379 7.24797629 69.32288173 7.24973894 60.8858161 7.25524533 C53.65526481 7.25977628 46.42472082 7.2604271 39.19416857 7.25780666 C34.86983341 7.25624378 30.54550963 7.2560504 26.22117519 7.25934315 C22.15666536 7.2622216 18.09218683 7.26024665 14.0276804 7.25444889 C12.53164694 7.25312115 11.03561087 7.25351564 9.53957844 7.25571156 C7.50590894 7.25842249 5.47223371 7.25442874 3.43856716 7.25003147 C2.29776447 7.24965445 1.15696178 7.24927742 -0.01841068 7.24888897 C-2.55935764 7.12304783 -2.55935764 7.12304783 -3.55935764 6.12304783 C-3.68435764 3.62304783 -3.68435764 3.62304783 -3.55935764 1.12304783 C-2.55935764 0.12304783 -2.55935764 0.12304783 0 0 Z " fill="#CE5D3E" transform="translate(19.55935764312744,83.87695217132568)"/>
<path d="M0 0 C41.58 0 83.16 0 126 0 C126 2.31 126 4.62 126 7 C84.42 7 42.84 7 0 7 C0 4.69 0 2.38 0 0 Z " fill="#CE5D3E" transform="translate(236,84)"/>
</svg>
